<?xml version="1.0" encoding="UTF-8"?><svg id="_層_1" xmlns="http://www.w3.org/2000/svg" viewBox="0 0 32 31.98"><path d="M15.99,0c4.41,0,8.43,1.78,11.32,4.67l.06,.08c2.86,2.89,4.63,6.86,4.63,11.24s-1.8,8.41-4.69,11.31l-.08,.06c-2.88,2.86-6.86,4.62-11.24,4.62s-8.41-1.78-11.31-4.69h0C1.8,24.4,0,20.4,0,15.99S1.78,7.58,4.68,4.68h0C7.59,1.78,11.58,0,15.99,0h0Zm7,14.76h-5.76V4.96c0-.67-.54-1.22-1.23-1.22s-1.23,.55-1.23,1.22V15.99c0,.67,.56,1.23,1.23,1.23h7c.68,0,1.22-.56,1.22-1.23s-.54-1.23-1.22-1.23h0Zm2.59-8.35h0c-2.45-2.45-5.84-3.97-9.58-3.97s-7.13,1.52-9.56,3.97h-.02c-2.43,2.45-3.95,5.83-3.95,9.58s1.52,7.12,3.96,9.58h0c2.44,2.43,5.83,3.96,9.56,3.96s7.07-1.52,9.53-3.92l.05-.04c2.45-2.46,3.96-5.85,3.96-9.58s-1.5-7.08-3.91-9.51l-.05-.07h0Z"/></svg>